<svg width="80" height="31" viewBox="0 0 80 31" fill="none" xmlns="http://www.w3.org/2000/svg">
<path d="M21.096 23.912C21.096 25.512 21.192 27.208 21.384 29C20.36 29.064 19.688 29.096 19.368 29.096C17.576 29.096 16.28 28.792 15.48 28.184C14.68 27.544 14.28 26.616 14.28 25.4C14.28 24.184 14.616 21.688 15.288 17.912C15.992 14.104 16.344 11.224 16.344 9.272C16.344 7.288 15.704 6.296 14.424 6.296C13.72 6.296 12.952 6.728 12.12 7.592C11.288 8.424 10.504 9.576 9.768 11.048C9.032 12.488 8.408 14.344 7.896 16.616C7.416 18.888 7.176 21.08 7.176 23.192C7.176 25.272 7.272 27.208 7.464 29C6.44 29.064 5.768 29.096 5.448 29.096C3.656 29.096 2.36 28.792 1.56 28.184C0.76 27.544 0.36 26.488 0.36 25.016C0.36 24.664 0.68 22.28 1.32 17.864C1.992 13.448 2.328 9.96 2.328 7.4C2.328 4.808 2.056 2.44 1.512 0.295998C3.88 1.032 5.528 2.088 6.456 3.464C7.384 4.84 7.848 6.536 7.848 8.552C7.848 9.576 7.736 10.872 7.512 12.44C8.6 9.24 10.104 6.584 12.024 4.472C13.976 2.36 15.848 1.304 17.64 1.304C19.464 1.304 20.776 1.976 21.576 3.32C22.408 4.664 22.824 6.6 22.824 9.128C24.04 6.792 25.432 4.904 27 3.464C28.568 2.024 30.008 1.304 31.32 1.304C33.272 1.304 34.648 1.896 35.448 3.08C36.28 4.232 36.696 5.816 36.696 7.832C36.696 9.816 36.376 12.616 35.736 16.232C35.128 19.848 34.824 22.488 34.824 24.152C34.824 25.784 35.032 26.984 35.448 27.752C35.864 28.488 36.568 29.128 37.56 29.672C37.144 29.704 36.552 29.72 35.784 29.72C33.096 29.72 31.176 29.304 30.024 28.472C28.904 27.64 28.344 26.184 28.344 24.104C28.344 22.92 28.664 20.616 29.304 17.192C29.944 13.736 30.264 11.16 30.264 9.464C30.264 7.352 29.624 6.296 28.344 6.296C27.384 6.296 26.344 7 25.224 8.408C24.136 9.784 23.176 11.88 22.344 14.696C21.512 17.48 21.096 20.552 21.096 23.912ZM48.8655 19.928C48.8655 21.432 49.1375 22.664 49.6815 23.624C50.2575 24.552 51.0575 25.016 52.0815 25.016C53.5855 25.016 55.0095 24.136 56.3535 22.376C57.7295 20.616 58.8175 18.36 59.6175 15.608C60.4495 12.856 60.8655 10.248 60.8655 7.784C60.8655 5.288 60.7695 3.272 60.5775 1.736C61.5375 1.672 62.2095 1.64 62.5935 1.64C64.2255 1.64 65.4575 1.944 66.2895 2.552C67.1215 3.16 67.5375 4.248 67.5375 5.816C67.5375 6.424 67.1535 8.904 66.3855 13.256C65.6175 17.576 65.2335 21.048 65.2335 23.672C65.2335 26.264 65.7295 28.568 66.7215 30.584C64.3215 30.168 62.5615 29.288 61.4415 27.944C60.3215 26.568 59.7615 24.6 59.7615 22.04C59.7615 21.592 59.8255 20.728 59.9535 19.448C59.0895 22.488 57.5535 24.936 55.3455 26.792C53.1375 28.648 50.9615 29.576 48.8175 29.576C46.7055 29.576 44.9935 28.792 43.6815 27.224C42.4015 25.624 41.7615 23.368 41.7615 20.456C41.7615 17.544 42.2735 14.728 43.2975 12.008C44.3535 9.256 45.9215 6.936 48.0015 5.048C50.0815 3.128 52.4015 2.168 54.9615 2.168C56.4335 2.168 57.9375 2.52 59.4735 3.224C56.2415 4.376 53.6655 6.648 51.7455 10.04C49.8255 13.4 48.8655 16.696 48.8655 19.928Z" fill="white"/>
<path d="M78.8063 29.048C77.6863 29.368 76.5503 29.528 75.3983 29.528C73.0303 29.528 71.8463 28.536 71.8463 26.552C71.8463 25.912 72.1343 24.552 72.7103 22.472C73.8303 22.152 74.9663 21.992 76.1183 21.992C78.4863 21.992 79.6703 22.984 79.6703 24.968C79.6703 25.608 79.3823 26.968 78.8063 29.048Z" fill="#85A1D0"/>
</svg>
